<?xml version="1.0" standalone="no"?>
<!DOCTYPE svg PUBLIC "-//W3C//DTD SVG 20010904//EN"
 "http://www.w3.org/TR/2001/REC-SVG-20010904/DTD/svg10.dtd">
<svg version="1.0" xmlns="http://www.w3.org/2000/svg"
 width="48.000000pt" height="48.000000pt" viewBox="0 0 48.000000 48.000000"
 preserveAspectRatio="xMidYMid meet">

<g transform="translate(0.000000,48.000000) scale(0.100000,-0.100000)"
fill="#000000" stroke="none">
<path d="M94 401 c-38 -23 -58 -70 -50 -113 8 -42 66 -118 139 -181 l57 -50
58 50 c72 63 130 139 138 181 8 43 -12 90 -50 113 -40 24 -73 24 -113 -1 -33
-20 -33 -20 -65 0 -41 25 -74 25 -114 1z m115 -47 l31 -26 31 26 c17 14 42 26
57 26 34 0 72 -37 72 -70 0 -36 -51 -111 -111 -161 l-49 -41 -49 41 c-59 49
-111 124 -111 160 0 34 37 71 71 71 15 0 41 -12 58 -26z"/>
<path d="M224 289 c-10 -17 13 -36 27 -22 12 12 4 33 -11 33 -5 0 -12 -5 -16
-11z"/>
<path d="M164 249 c-10 -17 13 -36 27 -22 12 12 4 33 -11 33 -5 0 -12 -5 -16
-11z"/>
<path d="M284 249 c-10 -17 13 -36 27 -22 12 12 4 33 -11 33 -5 0 -12 -5 -16
-11z"/>
<path d="M216 221 c-23 -25 -13 -41 24 -41 16 0 32 5 35 11 7 10 -21 49 -35
49 -4 0 -15 -9 -24 -19z"/>
</g>
</svg>
